<?xml version="1.0" encoding="UTF-8" standalone="no"?>
<svg
   xmlns:dc="http://purl.org/dc/elements/1.1/"
   xmlns:cc="http://creativecommons.org/ns#"
   xmlns:rdf="http://www.w3.org/1999/02/22-rdf-syntax-ns#"
   xmlns:svg="http://www.w3.org/2000/svg"
   xmlns="http://www.w3.org/2000/svg"
   xmlns:xlink="http://www.w3.org/1999/xlink"
   xmlns:sodipodi="http://sodipodi.sourceforge.net/DTD/sodipodi-0.dtd"
   xmlns:inkscape="http://www.inkscape.org/namespaces/inkscape"
   viewBox="0 0 256 256"
   width="512"
   height="512"
   version="1.1"
   id="svg6"
   sodipodi:docname="handlebarsjs-icon.svg"
   inkscape:version="0.92.3 (2405546, 2018-03-11)">
  <metadata
     id="metadata12">
    <rdf:RDF>
      <cc:Work
         rdf:about="">
        <dc:format>image/svg+xml</dc:format>
        <dc:type
           rdf:resource="http://purl.org/dc/dcmitype/StillImage" />
        <dc:title></dc:title>
      </cc:Work>
    </rdf:RDF>
  </metadata>
  <defs
     id="defs10">
    <linearGradient
       inkscape:collect="always"
       id="linearGradient2114">
      <stop
         style="stop-color:#dcdcdc;stop-opacity:1"
         offset="0"
         id="stop2110" />
      <stop
         style="stop-color:#b5b5b5;stop-opacity:1"
         offset="1"
         id="stop2112" />
    </linearGradient>
    <filter
       inkscape:collect="always"
       style="color-interpolation-filters:sRGB"
       id="filter2079"
       x="-0.096006982"
       width="1.192014"
       y="-0.2546806"
       height="1.5093611">
      <feGaussianBlur
         inkscape:collect="always"
         stdDeviation="0.49860653"
         id="feGaussianBlur2081" />
    </filter>
    <filter
       inkscape:collect="always"
       style="color-interpolation-filters:sRGB"
       id="filter2083"
       x="-0.096006982"
       width="1.192014"
       y="-0.2546806"
       height="1.5093611">
      <feGaussianBlur
         inkscape:collect="always"
         stdDeviation="0.49860653"
         id="feGaussianBlur2085" />
    </filter>
    <radialGradient
       inkscape:collect="always"
       xlink:href="#linearGradient2114"
       id="radialGradient2118"
       cx="129.15923"
       cy="146.09718"
       fx="129.15923"
       fy="146.09718"
       r="9.522768"
       gradientTransform="matrix(0.57052812,0.00421488,-0.0335257,4.7125538,60.368281,-544.08855)"
       gradientUnits="userSpaceOnUse" />
  </defs>
  <sodipodi:namedview
     pagecolor="#ff7e00"
     bordercolor="#666666"
     borderopacity="1"
     objecttolerance="10"
     gridtolerance="10"
     guidetolerance="10"
     inkscape:pageopacity="0"
     inkscape:pageshadow="2"
     inkscape:window-width="1920"
     inkscape:window-height="1062"
     id="namedview8"
     showgrid="false"
     showguides="true"
     inkscape:zoom="0.921875"
     inkscape:cx="442.583"
     inkscape:cy="270.85575"
     inkscape:window-x="1280"
     inkscape:window-y="0"
     inkscape:window-maximized="1"
     inkscape:current-layer="svg6" />
  <g
     id="g2137"
     transform="translate(-0.54588353,-5.8159105)">
    <path
       style="fill:#322214;fill-opacity:1;stroke:none;stroke-width:2.5;stroke-linecap:round;stroke-linejoin:round;stroke-miterlimit:4;stroke-dasharray:none;stroke-opacity:1"
       inkscape:connector-curvature="0"
       id="path2"
       d="m 30.676456,89.0406 c 2.180026,-1.7935 3.772527,-4.1977 4.561046,-6.90341 C 36.830003,77.97813 34.796859,73.32431 30.676456,71.65451 17.27935,64.86706 8.6288243,76.95769 7.3764693,79.77163 6.1241144,82.58556 3.9131666,87.05384 5.3124027,97.24276 c 1.3992362,10.1889 6.3158893,19.59702 21.6920253,23.29998 14.711306,3.41692 30.149287,1.62342 43.677813,-5.10219 L 116.13809,96.48516 a 55.737528,55.737528 0 0 1 12.8405,-1.60023 V 79.39283 A 35.560697,35.560697 0 0 0 94.554292,61.28006 C 70.001949,63.21271 60.245949,75.84449 54.355242,81.2559 48.464535,86.66731 37.293838,99.42277 29.864744,97.1809 22.435651,94.93904 20.340662,85.76283 22.961331,82.94116 c 2.620669,-2.82166 4.684735,-2.31917 6.315889,0 1.004976,1.87081 1.499734,3.96579 1.45335,6.08398 z" />
    <path
       style="fill:#322214;fill-opacity:1;stroke:none;stroke-width:2.5;stroke-linecap:round;stroke-linejoin:round;stroke-miterlimit:4;stroke-dasharray:none;stroke-opacity:1"
       inkscape:connector-curvature="0"
       id="path4"
       d="m 226.4149,89.0406 c -2.18002,-1.7935 -3.77252,-4.1977 -4.56105,-6.90341 -1.5925,-4.15906 0.44065,-8.81288 4.56105,-10.48268 13.39711,-6.78745 22.04763,5.30318 23.29998,8.11712 1.25237,2.81393 3.46331,7.28221 2.06407,17.47113 -1.39923,10.1889 -6.31589,19.59702 -21.69202,23.29998 -14.7113,3.41692 -30.14929,1.62342 -43.67781,-5.10219 L 140.95327,96.48516 a 55.737528,55.737528 0 0 0 -12.8405,-1.60023 v -15.4921 a 35.560697,35.560697 0 0 1 34.4243,-18.11277 c 24.55234,1.93265 34.30834,14.56443 40.19905,19.97584 5.8907,5.41141 17.0614,18.16687 24.49049,15.925 7.42909,-2.24186 9.52409,-11.41807 6.90341,-14.23974 -2.62066,-2.82166 -4.68473,-2.31917 -6.31589,0 -1.00497,1.87081 -1.49973,3.96579 -1.45334,6.08398 z" />
    <path
       transform="matrix(7.7305863,0,0,6.0954407,4.8562982,25.896629)"
       sodipodi:nodetypes="czzczzc"
       inkscape:connector-curvature="0"
       id="path871"
       d="m 2.6846088,13.303618 c 0,0 3.6937378,-1.992858 5.0815809,-2.780489 1.3878432,-0.7876309 1.8583028,-1.8763474 3.2598823,-1.9175781 1.40158,-0.041231 4.122793,2.1093351 4.122793,2.1093351 0,0 -2.799686,0.073 -3.876618,0.344647 -1.076931,0.271648 -1.125464,0.658603 -2.5472684,1.093538 -1.4218044,0.434934 -6.0403698,1.150547 -6.0403698,1.150547 z"
       style="fill:#5a4d42;fill-opacity:1;stroke:#5a4d42;stroke-width:0.5px;stroke-linecap:butt;stroke-linejoin:miter;stroke-opacity:1;filter:url(#filter2083)" />
    <path
       transform="matrix(-7.7305863,0,0,6.0954407,250.94771,25.896629)"
       style="fill:#5a4d42;fill-opacity:1;stroke:#5a4d42;stroke-width:0.5px;stroke-linecap:butt;stroke-linejoin:miter;stroke-opacity:1;filter:url(#filter2079)"
       d="m 2.6846088,13.303618 c 0,0 3.6937378,-1.992858 5.0815809,-2.780489 1.3878432,-0.7876309 1.8583028,-1.8763474 3.2598823,-1.9175781 1.40158,-0.041231 4.122793,2.1093351 4.122793,2.1093351 0,0 -2.799686,0.073 -3.876618,0.344647 -1.076931,0.271648 -1.125464,0.658603 -2.5472684,1.093538 -1.4218044,0.434934 -6.0403698,1.150547 -6.0403698,1.150547 z"
       id="path1693"
       inkscape:connector-curvature="0"
       sodipodi:nodetypes="czzczzc" />
    <path
       sodipodi:nodetypes="cssscc"
       inkscape:connector-curvature="0"
       id="rect822"
       d="M 136.4505,92.794984 V 197.09828 c 0,5.21267 -3.2519,9.40915 -7.29126,9.40915 -4.03936,0 -7.29127,-4.19648 -7.29127,-9.40915 V 92.862781 c 5.05662,-0.847396 10.95318,-0.840641 14.58253,-0.0678 z"
       style="fill:url(#radialGradient2118);fill-opacity:1;stroke:none;stroke-width:4.50530672;stroke-linejoin:round;stroke-miterlimit:4;stroke-dasharray:none;stroke-dashoffset:0;stroke-opacity:1" />
    <path
       sodipodi:nodetypes="ccccccssssscccccccccscssccccccscsccccccsscsccccccccccccccccccccscccccscccccccccccccccccsssccccccccscccccccccscscccsccccccc"
       inkscape:connector-curvature="0"
       id="path2087"
       d="m 158.96972,58.625975 c -12.12367,0.08027 -23.36266,5.96808 -30.42968,15.63672 -7.39957,-10.12053 -19.34715,-16.07077 -32.039065,-15.614255 h -0.0019 c -0.7146,0.02639 -1.428655,0.07304 -2.140625,0.139645 -0.003,2.4e-4 -0.0058,7.4e-4 -0.0088,9.75e-4 -25.343735,1.998 -36.210115,15.59605 -41.68555,20.62598 -3.086197,2.83509 -7.282731,7.29772 -11.543943,10.72461 -2.130606,1.713445 -4.269251,3.148755 -6.133789,3.972655 -1.864538,0.8239 -3.335767,0.99578 -4.399414,0.674805 -2.873642,-0.867175 -4.713139,-3.073105 -5.609375,-5.405275 -0.896236,-2.332165 -0.349289,-4.561905 -0.18457,-4.739255 1.037199,-1.11675 1.528794,-1.134935 1.547851,-1.13379 0.01753,10e-4 0.295616,0.10511 0.786133,0.75195 0.709994,1.371405 1.068147,2.88845 1.077148,4.4375 -0.246872,1.792316 1.432715,3.245355 3.170859,2.743165 l 0.05371,-0.01563 c 0.509941,-0.149279 0.959066,-0.457133 1.282226,-0.878905 2.291501,-2.032505 3.997472,-4.645485 4.88086,-7.588865 2.011581,-5.367795 -0.631596,-11.41427 -5.924805,-13.59375 -7.369609,-3.67248 -14.022078,-2.217205 -18.53125,0.634765 -4.537996,2.8702 -7.088204,6.61058 -8.0429685,8.75586 -1.2076384,2.713455 -3.7177793,8.189865 -2.256836,18.828125 0.7392088,5.382735 2.443841,10.773885 6.142578,15.320305 3.6987375,4.54642 9.3437775,8.1202 17.4414065,10.07032 0.0065,0.002 0.01301,0.003 0.01953,0.005 15.274572,3.54774 31.307722,1.68442 45.356447,-5.29981 l -0.15137,0.0693 45.228522,-18.86035 c 0.82349,-0.19716 1.66341,-0.31113 2.49512,-0.46875 v 98.85546 c 0,6.17471 4.05247,11.7334 9.79101,11.7334 5.73854,1e-5 9.79101,-5.55869 9.79101,-11.7334 V 98.65332 c 0.42338,0.0847 0.85219,0.14134 1.27344,0.23633 l 45.22363,18.8584 -0.15136,-0.0693 c 14.04872,6.98423 30.08188,8.84755 45.35644,5.29981 0.007,-0.002 0.013,-0.003 0.0195,-0.005 8.09763,-1.95012 13.74267,-5.5239 17.44141,-10.07032 3.69874,-4.54642 5.40337,-9.93757 6.14258,-15.32031 1.46094,-10.63826 -1.04918,-16.114655 -2.25684,-18.828125 -0.95476,-2.145285 -3.50497,-5.88566 -8.04297,-8.75586 -4.50917,-2.85197 -11.16164,-4.307245 -18.53125,-0.634765 -5.29308,2.17943 -7.93747,8.22564 -5.92578,13.59375 0.88398,2.945295 2.5912,5.55976 4.88477,7.59277 0.32519,0.423138 0.77725,0.731124 1.29004,0.87891 l 0.0547,0.01562 c 1.74129,0.495348 3.41547,-0.966645 3.15918,-2.758785 0.0109,-1.544305 0.36865,-3.05735 1.07715,-4.425785 0.49061,-0.646965 0.76905,-0.750925 0.78613,-0.75195 0.0186,-0.0011 0.50958,0.01693 1.54688,1.13379 0.16472,0.17735 0.71167,2.40709 -0.18457,4.739255 -0.89623,2.33217 -2.73573,4.5381 -5.60938,5.405275 -1.06365,0.32098 -2.53497,0.14908 -4.39941,-0.674805 -1.86443,-0.823885 -4.00232,-2.259215 -6.13281,-3.972655 -4.26097,-3.42688 -8.4577,-7.889475 -11.54394,-10.72461 -5.47465,-5.02919 -16.33901,-18.623905 -41.67481,-20.625 -1.25746,-0.11723 -2.52031,-0.172355 -3.78321,-0.164065 z m 0.0332,5 c 1.10208,-0.0072 2.20347,0.04075 3.30078,0.143555 0.0124,0.0011 0.0247,0.002 0.0371,0.0029 23.75444,1.869845 32.39877,13.53193 38.7041,19.32422 2.80446,2.576275 7.13877,7.196315 11.79297,10.939455 2.3271,1.871565 4.74255,3.543105 7.2461,4.64941 2.50353,1.10631 5.21434,1.688625 7.86523,0.888675 4.55545,-1.37469 7.47773,-4.877835 8.83105,-8.399415 1.35333,-3.52158 1.6376,-7.290255 -0.81836,-9.93457 -1.58336,-1.704805 -3.43455,-2.84619 -5.51074,-2.72168 -2.07619,0.12451 -3.62954,1.488505 -4.68164,2.984375 -0.0575,0.08206 -0.10999,0.1675 -0.15723,0.25586 -0.26763,0.498215 -0.39057,1.04756 -0.59765,1.569335 -0.30309,-0.607785 -0.56929,-1.23367 -0.76075,-1.890625 -0.0191,-0.06565 -0.041,-0.130478 -0.0654,-0.194335 -1.11567,-2.91375 0.27771,-6.10139 3.16504,-7.271485 0.065,-0.02628 0.12885,-0.05528 0.19141,-0.08692 5.9712,-3.025215 10.28874,-1.84095 13.73828,0.34082 3.44954,2.181775 5.84988,5.893845 6.14746,6.5625 1.29708,2.91439 3.2096,6.37565 1.87208,16.115235 -0.66003,4.806155 -2.11378,9.214205 -5.06739,12.844725 -2.95216,3.62873 -7.45143,6.60813 -14.72363,8.36133 -14.14511,3.28304 -28.98393,1.55828 -41.98926,-4.90723 -0.0497,-0.0248 -0.10016,-0.0479 -0.15137,-0.0693 L 141.91504,94.177735 c -0.13087,-0.05435 -0.26612,-0.09747 -0.4043,-0.128905 -2.35678,-0.695867 -4.40662,-1.263458 -7.29688,-1.469494 l -0.26367,104.695074 c -0.0102,4.05577 -2.45083,6.7334 -4.79101,6.7334 -2.34018,0 -4.79287,-2.67762 -4.79101,-6.7334 l 0.0479,-104.716652 c 0,0 -1.38092,0.17416 -2.87997,0.374857 -2.01408,0.26976 -4.01244,0.644375 -5.98731,1.12305 -0.12736,0.03085 -0.25209,0.07167 -0.37305,0.12207 L 69.720705,113.13281 c -0.05121,0.0214 -0.101697,0.0445 -0.15137,0.0693 -13.00534,6.46551 -27.844145,8.19027 -41.989257,4.90723 -7.272207,-1.7532 -11.771472,-4.7326 -14.723632,-8.36133 C 9.902834,106.11753 8.4490895,101.70948 7.7890625,96.90332 6.4515335,87.16374 8.364061,83.70249 9.661133,80.788085 c 0.29759,-0.66866 2.69792,-4.380725 6.147461,-6.5625 3.449541,-2.18177 7.767091,-3.366035 13.738281,-0.34082 0.06255,0.03164 0.126414,0.06064 0.191406,0.08692 2.887209,1.170045 4.279858,4.357415 3.164063,7.271485 -0.02446,0.06386 -0.04629,0.128689 -0.06543,0.194335 -0.191409,0.656795 -0.45786,1.282105 -0.760742,1.88965 -0.206883,-0.521325 -0.329237,-1.0705 -0.59668,-1.56836 -0.04724,-0.08836 -0.09974,-0.173801 -0.157227,-0.25586 -1.052233,-1.49606 -2.606427,-2.859895 -4.682617,-2.984375 -2.07619,-0.12448 -3.927271,1.016765 -5.510742,2.72168 -2.45595,2.644315 -2.171678,6.41299 -0.818359,9.93457 1.353318,3.52158 4.275604,7.024725 8.831054,8.399415 2.6509,0.799965 5.361616,0.21762 7.865235,-0.888675 2.503619,-1.10629 4.919848,-2.77785 7.24707,-4.64941 4.654444,-3.74313 8.988459,-8.363135 11.792969,-10.939455 6.30532,-5.79229 14.949655,-17.454375 38.7041,-19.32422 0.01303,-8.65e-4 0.02605,-0.0018 0.03907,-0.0029 0.629025,-0.0595 1.25922,-0.10164 1.890625,-0.125 12.15451,-0.43718 23.55747,5.82635 29.70898,16.31836 0.96623,1.646151 3.34627,1.646151 4.3125,0 5.89671,-10.056145 16.64354,-16.25974 28.30078,-16.336915 z"
       style="color:#000000;font-style:normal;font-variant:normal;font-weight:normal;font-stretch:normal;font-size:medium;line-height:normal;font-family:sans-serif;font-variant-ligatures:normal;font-variant-position:normal;font-variant-caps:normal;font-variant-numeric:normal;font-variant-alternates:normal;font-feature-settings:normal;text-indent:0;text-align:start;text-decoration:none;text-decoration-line:none;text-decoration-style:solid;text-decoration-color:#000000;letter-spacing:normal;word-spacing:normal;text-transform:none;writing-mode:lr-tb;direction:ltr;text-orientation:mixed;dominant-baseline:auto;baseline-shift:baseline;text-anchor:start;white-space:normal;shape-padding:0;clip-rule:nonzero;display:inline;overflow:visible;visibility:visible;opacity:1;isolation:auto;mix-blend-mode:normal;color-interpolation:sRGB;color-interpolation-filters:linearRGB;solid-color:#000000;solid-opacity:1;vector-effect:none;fill:#ffffff;fill-opacity:1;fill-rule:nonzero;stroke:none;stroke-width:5;stroke-linecap:round;stroke-linejoin:round;stroke-miterlimit:4;stroke-dasharray:none;stroke-dashoffset:0;stroke-opacity:1;color-rendering:auto;image-rendering:auto;shape-rendering:auto;text-rendering:auto;enable-background:accumulate" />
  </g>
</svg>
