<svg xmlns="http://www.w3.org/2000/svg" xmlns:xlink="http://www.w3.org/1999/xlink" width="512" height="512" viewBox="0 0 256 256">
  <defs>
    <filter id="c" width="1.19" height="1.51" x="-.1" y="-.25" style="color-interpolation-filters:sRGB">
      <feGaussianBlur stdDeviation=".5"/>
    </filter>
    <filter id="b" width="1.19" height="1.51" x="-.1" y="-.25" style="color-interpolation-filters:sRGB">
      <feGaussianBlur stdDeviation=".5"/>
    </filter>
    <radialGradient xlink:href="#a" id="d" cx="129.16" cy="146.1" r="9.52" fx="129.16" fy="146.1" gradientTransform="matrix(.57 0 -.03 4.71 60.37 -544.09)" gradientUnits="userSpaceOnUse"/>
    <linearGradient id="a">
      <stop offset="0" style="stop-color:#dcdcdc;stop-opacity:1"/>
      <stop offset="1" style="stop-color:#b5b5b5;stop-opacity:1"/>
    </linearGradient>
  </defs>
  <path d="M30.68 89.04c2.18-1.8 3.77-4.2 4.56-6.9a8.16 8.16 0 0 0-4.56-10.49c-13.4-6.78-22.05 5.3-23.3 8.12C6.12 82.6 3.9 87.05 5.3 97.24c1.4 10.2 6.32 19.6 21.7 23.3a65.04 65.04 0 0 0 43.67-5.1l45.46-18.95a55.74 55.74 0 0 1 12.84-1.6v-15.5a35.56 35.56 0 0 0-34.43-18.11C70 63.21 60.25 75.84 54.35 81.26c-5.89 5.4-17.06 18.16-24.49 15.92-7.42-2.24-9.52-11.42-6.9-14.24 2.62-2.82 4.69-2.32 6.32 0 1 1.87 1.5 3.97 1.45 6.09z" style="fill:#322214;fill-opacity:1;stroke:none;stroke-width:2.5;stroke-linecap:round;stroke-linejoin:round;stroke-miterlimit:4;stroke-dasharray:none;stroke-opacity:1" transform="translate(-.55 -5.82)"/>
  <path d="M226.41 89.04a14.03 14.03 0 0 1-4.56-6.9 8.16 8.16 0 0 1 4.56-10.49c13.4-6.78 22.05 5.3 23.3 8.12 1.26 2.82 3.47 7.28 2.07 17.47-1.4 10.2-6.32 19.6-21.7 23.3a65.04 65.04 0 0 1-43.67-5.1L140.95 96.5a55.74 55.74 0 0 0-12.84-1.6v-15.5a35.56 35.56 0 0 1 34.43-18.11c24.55 1.93 34.3 14.56 40.2 19.98 5.89 5.4 17.06 18.16 24.49 15.92s9.52-11.42 6.9-14.24c-2.62-2.82-4.68-2.32-6.32 0-1 1.87-1.5 3.97-1.45 6.09z" style="fill:#322214;fill-opacity:1;stroke:none;stroke-width:2.5;stroke-linecap:round;stroke-linejoin:round;stroke-miterlimit:4;stroke-dasharray:none;stroke-opacity:1" transform="translate(-.55 -5.82)"/>
  <path d="M2.68 13.3s3.7-1.99 5.09-2.78c1.38-.78 1.85-1.87 3.26-1.91 1.4-.05 4.12 2.1 4.12 2.1s-2.8.08-3.88.35c-1.07.27-1.12.66-2.55 1.1-1.42.43-6.04 1.14-6.04 1.14z" style="fill:#5a4d42;fill-opacity:1;stroke:#5a4d42;stroke-width:.5px;stroke-linecap:butt;stroke-linejoin:miter;stroke-opacity:1;filter:url(#b)" transform="matrix(7.73 0 0 6.1 4.31 20.08)"/>
  <path d="M2.68 13.3s3.7-1.99 5.09-2.78c1.38-.78 1.85-1.87 3.26-1.91 1.4-.05 4.12 2.1 4.12 2.1s-2.8.08-3.88.35c-1.07.27-1.12.66-2.55 1.1-1.42.43-6.04 1.14-6.04 1.14z" style="fill:#5a4d42;fill-opacity:1;stroke:#5a4d42;stroke-width:.5px;stroke-linecap:butt;stroke-linejoin:miter;stroke-opacity:1;filter:url(#c)" transform="matrix(-7.73 0 0 6.1 250.4 20.08)"/>
  <path d="M136.45 92.8v104.3c0 5.21-3.25 9.4-7.3 9.4-4.03 0-7.28-4.19-7.28-9.4V92.86c5.05-.84 10.95-.84 14.58-.07z" style="fill:url(#d);fill-opacity:1;stroke:none;stroke-width:4.50530672;stroke-linejoin:round;stroke-miterlimit:4;stroke-dasharray:none;stroke-dashoffset:0;stroke-opacity:1" transform="translate(-.55 -5.82)"/>
  <path d="M158.97 58.63a38.03 38.03 0 0 0-30.43 15.63A38.02 38.02 0 0 0 96.5 58.65c-.72.02-1.43.07-2.14.14h-.01c-25.34 2-36.21 15.6-41.69 20.63-3.08 2.83-7.28 7.3-11.54 10.72a29.53 29.53 0 0 1-6.13 3.97c-1.87.83-3.34 1-4.4.68a8.78 8.78 0 0 1-5.61-5.4c-.9-2.34-.35-4.57-.19-4.75 1.04-1.11 1.53-1.13 1.55-1.13.02 0 .3.1.79.75a9.75 9.75 0 0 1 1.07 4.44 2.5 2.5 0 0 0 3.18 2.74l.05-.01a2.5 2.5 0 0 0 1.28-.88c2.3-2.04 4-4.65 4.88-7.6a10.7 10.7 0 0 0-5.92-13.59c-7.37-3.67-14.03-2.21-18.53.64-4.54 2.87-7.1 6.61-8.05 8.75-1.2 2.72-3.72 8.2-2.25 18.83.74 5.39 2.44 10.78 6.14 15.32 3.7 4.55 9.34 8.12 17.44 10.07h.02a67.54 67.54 0 0 0 45.36-5.3l-.16.08 45.23-18.86c.83-.2 1.67-.31 2.5-.47v98.85c0 6.18 4.05 11.74 9.79 11.74 5.74 0 9.79-5.56 9.79-11.74V98.65c.42.09.85.14 1.27.24l45.23 18.86-.15-.07a67.54 67.54 0 0 0 45.35 5.3h.02c8.1-1.96 13.74-5.53 17.44-10.08 3.7-4.54 5.4-9.93 6.15-15.32 1.46-10.64-1.05-16.11-2.26-18.83-.96-2.14-3.5-5.88-8.04-8.75-4.51-2.85-11.17-4.3-18.54-.64a10.7 10.7 0 0 0-5.92 13.6 16.5 16.5 0 0 0 4.88 7.6c.33.41.78.72 1.3.87l.05.02a2.5 2.5 0 0 0 3.16-2.76 9.75 9.75 0 0 1 1.07-4.43c.5-.65.77-.75.8-.75.01 0 .5.02 1.54 1.13.16.18.71 2.41-.19 4.74a8.78 8.78 0 0 1-5.6 5.4c-1.07.33-2.54.16-4.4-.67-1.87-.82-4-2.26-6.14-3.97-4.26-3.43-8.46-7.89-11.54-10.73-5.48-5.02-16.34-18.62-41.68-20.62a38.07 38.07 0 0 0-3.78-.16zm.03 5a33.07 33.07 0 0 1 3.34.14c23.76 1.87 32.4 13.53 38.7 19.33 2.8 2.57 7.14 7.2 11.8 10.94a33.54 33.54 0 0 0 7.24 4.65c2.5 1.1 5.22 1.68 7.87.88a13.83 13.83 0 0 0 8.83-8.4c1.35-3.52 1.64-7.29-.82-9.93-1.58-1.7-3.43-2.85-5.5-2.72-2.09.12-3.64 1.49-4.69 2.98a2.5 2.5 0 0 0-.16.26c-.27.5-.39 1.05-.6 1.57a11.38 11.38 0 0 1-.82-2.09 5.62 5.62 0 0 1 3.35-7.36c5.98-3.02 10.3-1.84 13.74.35a20 20 0 0 1 6.15 6.56c1.3 2.91 3.21 6.37 1.87 16.11-.66 4.8-2.11 9.22-5.06 12.85-2.96 3.63-7.46 6.6-14.73 8.36a62.54 62.54 0 0 1-42.14-4.98l-45.45-18.95a31.6 31.6 0 0 0-7.7-1.6l-.27 104.7c-.01 4.05-2.45 6.73-4.8 6.73-2.33 0-4.78-2.68-4.78-6.74l.05-104.71-2.88.37c-2.02.27-4.02.65-6 1.13a2.5 2.5 0 0 0-.36.12l-45.46 18.95-.15.07a62.54 62.54 0 0 1-41.99 4.9c-7.27-1.74-11.77-4.72-14.72-8.35-2.96-3.63-4.41-8.04-5.07-12.85-1.34-9.74.57-13.2 1.87-16.11a20 20 0 0 1 6.15-6.56c3.45-2.19 7.77-3.37 13.74-.35l.19.1a5.62 5.62 0 0 1 3.1 7.46c-.2.65-.46 1.28-.76 1.89-.21-.52-.33-1.07-.6-1.57a2.5 2.5 0 0 0-.16-.26c-1.05-1.5-2.6-2.86-4.68-2.98-2.08-.13-3.93 1.02-5.51 2.72-2.46 2.64-2.17 6.41-.82 9.93a13.83 13.83 0 0 0 8.83 8.4c2.65.8 5.36.22 7.87-.88 2.5-1.11 4.92-2.78 7.24-4.65 4.66-3.75 9-8.37 11.8-10.94 6.3-5.8 14.95-17.46 38.7-19.33h.04a33.05 33.05 0 0 1 31.6 16.2 2.5 2.5 0 0 0 4.31 0A33.05 33.05 0 0 1 159 63.62z" style="color:#000;font-style:normal;font-variant:normal;font-weight:400;font-stretch:normal;font-size:medium;line-height:normal;font-family:sans-serif;font-variant-ligatures:normal;font-variant-position:normal;font-variant-caps:normal;font-variant-numeric:normal;font-variant-alternates:normal;font-feature-settings:normal;text-indent:0;text-align:start;text-decoration:none;text-decoration-line:none;text-decoration-style:solid;text-decoration-color:#000;letter-spacing:normal;word-spacing:normal;text-transform:none;writing-mode:lr-tb;direction:ltr;text-orientation:mixed;dominant-baseline:auto;baseline-shift:baseline;text-anchor:start;white-space:normal;shape-padding:0;clip-rule:nonzero;display:inline;overflow:visible;visibility:visible;opacity:1;isolation:auto;mix-blend-mode:normal;color-interpolation:sRGB;color-interpolation-filters:linearRGB;solid-color:#000;solid-opacity:1;vector-effect:none;fill:#fff;fill-opacity:1;fill-rule:nonzero;stroke:none;stroke-width:5;stroke-linecap:round;stroke-linejoin:round;stroke-miterlimit:4;stroke-dasharray:none;stroke-dashoffset:0;stroke-opacity:1;color-rendering:auto;image-rendering:auto;shape-rendering:auto;text-rendering:auto;enable-background:accumulate" transform="translate(-.55 -5.82)"/>
</svg>
